<svg width="100" height="100" viewBox="0 0 400 400" fill="none" xmlns="http://www.w3.org/2000/svg">
	<g clip-path="url(#clip0)">
		<path d="M266.29 177.03C266.29 178.14 266.22 268.95 266.22 268.95H266.15C266.15 282.18 255.44 292.9 242.2 292.9C232.46 292.9 224.08 287.08 220.34 278.74C216.66 286.49 208.78 291.84 199.63 291.84C190.5 291.84 182.61 286.5 178.94 278.74C175.21 287.08 166.83 292.9 157.08 292.9C143.85 292.9 133.13 282.17 133.13 268.95H133.07C133.07 268.95 133 178.13 133 177.03C133 136.82 163.16 108 199.65 108C236.14 108 266.29 136.82 266.29 177.03Z" fill="#B3E5FC" />
		<path d="M206.87 181.98C204.8 183.94 201.96 185.05 198.89 184.84C195.52 184.61 192.63 182.82 190.87 180.22" stroke="#491249" stroke-width="3" stroke-miterlimit="10" stroke-linecap="round" stroke-linejoin="round" />
		<path d="M177.51 177.17C185.231 177.17 191.49 170.911 191.49 163.19C191.49 155.469 185.231 149.21 177.51 149.21C169.789 149.21 163.53 155.469 163.53 163.19C163.53 170.911 169.789 177.17 177.51 177.17Z" fill="white" />
		<path d="M177.51 172.03C182.392 172.03 186.35 168.072 186.35 163.19C186.35 158.308 182.392 154.35 177.51 154.35C172.628 154.35 168.67 158.308 168.67 163.19C168.67 168.072 172.628 172.03 177.51 172.03Z" fill="#491249" />
		<path d="M221.78 177.17C229.501 177.17 235.76 170.911 235.76 163.19C235.76 155.469 229.501 149.21 221.78 149.21C214.059 149.21 207.8 155.469 207.8 163.19C207.8 170.911 214.059 177.17 221.78 177.17Z" fill="white" />
		<path d="M221.779 172.03C226.662 172.03 230.619 168.072 230.619 163.19C230.619 158.308 226.662 154.35 221.779 154.35C216.897 154.35 212.939 158.308 212.939 163.19C212.939 168.072 216.897 172.03 221.779 172.03Z" fill="#491249" />
		<path d="M199.65 174.35C200.931 174.35 201.97 173.311 201.97 172.03C201.97 170.749 200.931 169.71 199.65 169.71C198.369 169.71 197.33 170.749 197.33 172.03C197.33 173.311 198.369 174.35 199.65 174.35Z" fill="#491249" />
		<path opacity="0.1" d="M266.24 238.19C266.24 255.12 266.23 268.95 266.23 268.95H266.16C266.16 282.18 255.45 292.9 242.21 292.9C232.47 292.9 224.09 287.08 220.35 278.74C216.67 286.49 208.79 291.84 199.64 291.84C190.51 291.84 182.62 286.5 178.95 278.74C175.22 287.08 166.84 292.9 157.09 292.9C143.86 292.9 133.14 282.17 133.14 268.95H133.07C133.07 268.95 133.06 257.55 133.06 242.79C139.34 241.91 145.96 243.49 151.13 247.2C155.19 250.1 158.31 254.15 162.3 257.15C166.35 260.18 171.39 262.06 176.43 261.72C181.03 261.4 185.29 259.31 189.66 257.81C198.81 254.71 208.85 254.26 218.22 256.56C222.87 257.69 227.5 259.5 232.28 259.17C240.57 258.61 246.91 251.99 253.25 246.62C257.13 243.3 261.54 240.29 266.24 238.19Z" fill="#4B194E" />
	</g>
	<defs>
		<clipPath id="clip0">
			<rect width="133.29" height="184.91" fill="white" transform="translate(133 108)" />
		</clipPath>
	</defs>
</svg>
