<svg xmlns="http://www.w3.org/2000/svg" xmlns:xlink="http://www.w3.org/1999/xlink" version="1.1" x="0px" y="0px" viewBox="0 0 100 100" style="enable-background:new 0 0 100 100;" xml:space="preserve">
	<g>
		<path d="M100,50c0-2.367-8.793-4.038-9.155-6.306c-0.378-2.328,7.452-6.552,6.721-8.745c-0.741-2.231-9.634-1.169-10.716-3.23  
   c-1.09-2.083,5.006-8.469,3.604-10.345c-1.409-1.886-9.528,1.799-11.218,0.152c-1.688-1.645,2.096-9.55,0.158-10.922  
  c-1.928-1.367-8.484,4.57-10.621,3.507c-2.117-1.053-1.025-9.709-3.317-10.435c-2.253-0.713-6.591,6.912-8.981,6.546 
  C54.146,9.866,52.432,1.304,50,1.304c-2.431,0-4.147,8.562-6.475,8.919c-2.391,0.366-6.729-7.26-8.98-6.548   
  c-2.291,0.724-1.199,9.383-3.316,10.436c-2.14,1.064-8.695-4.875-10.624-3.508c-1.936,1.373,1.848,9.279,0.159,10.923  
  c-1.69,1.646-9.807-2.04-11.215-0.154c-1.404,1.878,4.692,8.262,3.6,10.345c-1.081,2.063-9.97,0.999-10.714,3.231  
  c-0.731,2.193,7.098,6.418,6.723,8.746C8.791,45.962,0,47.633,0,50c0,2.368,8.791,4.039,9.155,6.307  
  c0.377,2.327-7.452,6.553-6.721,8.745c0.744,2.231,9.634,1.169,10.714,3.23c1.093,2.084-5.005,8.468-3.603,10.345  
  c1.412,1.887,9.526-1.801,11.217-0.154s-2.095,9.551-0.159,10.922c1.929,1.368,8.484-4.568,10.622-3.506   
  c2.118,1.055,1.027,9.712,3.318,10.437c2.252,0.711,6.59-6.913,8.981-6.547c2.328,0.356,4.043,8.918,6.475,8.918  
  c2.432,0,4.146-8.562,6.475-8.918c2.391-0.366,6.727,7.259,8.98,6.547c2.291-0.724,1.199-9.382,3.315-10.437  
  c2.14-1.061,8.694,4.876,10.624,3.509c1.936-1.372-1.851-9.278-0.159-10.923c1.69-1.645,9.806,2.04,11.216,0.153   
  c1.403-1.878-4.694-8.262-3.602-10.344c1.082-2.063,9.971-0.999,10.716-3.23c0.729-2.194-7.099-6.42-6.722-8.747   
  C91.207,54.039,100,52.368,100,50z M50,84.183c-19.383,0-35.097-15.304-35.097-34.183c0-18.878,15.714-34.18,35.097-34.18 
  c19.385,0,35.098,15.302,35.098,34.18C85.098,68.879,69.385,84.183,50,84.183z M80.635,50c0,16.479-13.716,29.837-30.635,29.837
  S19.364,66.479,19.364,50c0-16.478,13.717-29.834,30.636-29.834S80.635,33.522,80.635,50z" fill="#D58E4C" />
	</g>
</svg>
